<?xml version="1.0" encoding="UTF-8" standalone="no"?>
<svg
   width="305.71075"
   height="276.18179"
   viewBox="0 0 305.71075 276.18179"
   version="1.1"
   xml:space="preserve"
   style="clip-rule:evenodd;fill-rule:evenodd;stroke-miterlimit:10"
   id="svg1"
   xmlns="http://www.w3.org/2000/svg"
   xmlns:svg="http://www.w3.org/2000/svg"
   xmlns:serif="http://www.serif.com/"><defs
     id="defs1" /><rect
     id="Page-3"
     serif:id="Page 3"
     x="-150.94949"
     y="-284.29245"
     width="612"
     height="792"
     style="fill:none" /><path
     d="m 155.0505,111.70755 c -23.111,0.025 -40.902,15.592 -43.217,36.409 -1.79,16.088 4.206,29.061 17.188,38.749 1.999,1.491 4.115,2.825 6.186,4.218 1.574,1.059 1.82,1.8 1.094,3.553 -8.528,20.608 -17.058,41.216 -25.591,61.822 -0.879,2.122 -1.505,2.354 -3.506,1.288 -3.488,-1.858 -7.022,-3.638 -10.43,-5.633 -1.994,-1.167 -3.551,-1.064 -5.463,0.277 -8.738,6.131 -17.571,12.128 -26.373,18.168 -2.301,1.578 -2.849,1.525 -4.79,-0.415 -8.161,-8.159 -16.32,-16.319 -24.478,-24.481 -2.019,-2.019 -2.058,-2.566 -0.46,-4.891 6.251,-9.098 12.474,-18.216 18.763,-27.288 1.046,-1.508 1.187,-2.879 0.498,-4.573 -3.528,-8.668 -6.993,-17.36 -10.435,-26.062 -0.628,-1.587 -1.6,-2.463 -3.335,-2.778 -11.17,-2.024 -22.324,-4.132 -33.486,-6.202 -2.289,-0.424 -2.714,-0.902 -2.714,-3.258 -0.002,-11.813 -0.002,-23.626 0,-35.44 0,-2.43 0.398,-2.856 2.821,-3.302 11.475,-2.116 22.946,-4.258 34.423,-6.361 1.585,-0.29 2.551,-1.11 3.182,-2.603 3.54,-8.367 7.13,-16.712 10.738,-25.049996 0.589,-1.36 0.417,-2.512 -0.404,-3.704 -6.649,-9.652 -13.277,-19.319 -19.911,-28.981 -0.257,-0.374 -0.513,-0.75 -0.766,-1.127 -0.741,-1.108 -0.653,-2.129 0.325,-3.056 0.132,-0.124 0.257,-0.257 0.385,-0.385 8.417,-8.418 16.833,-16.836 25.25,-25.252 1.576,-1.575 2.196,-1.657 4,-0.42 9.853,6.756 19.72,13.493 29.525,20.317 1.692,1.178 3.189,1.335 5.065,0.549 7.75,-3.246 15.528,-6.426 23.328,-9.552 1.662,-0.666 2.522,-1.689 2.842,-3.445 2.149,-11.795 4.359,-23.578 6.548,-35.3649999 0.489,-2.632 0.833,-2.928 3.479,-2.928 11.766,-0.001 23.532,-0.002 35.299,10e-4 2.341,0 2.794,0.42 3.224,2.748 2.201,11.9219999 4.423,23.8409999 6.617,35.7649999 0.27,1.466 0.984,2.455 2.399,3.03 8.205,3.334 16.395,6.707 24.593,10.061 1.282,0.524 2.447,0.309 3.596,-0.483 9.799,-6.754 19.622,-13.475 29.423,-20.226 2.639,-1.818 3.057,-1.816 5.31,0.437 8.096,8.096 16.191,16.192 24.285,24.289 1.972,1.973 2.032,2.511 0.474,4.783 -6.68,9.74 -13.355,19.484 -20.064,29.205 -0.866,1.255 -0.988,2.43 -0.385,3.825 3.588,8.296996 7.152,16.603996 10.678,24.925996 0.649,1.53 1.646,2.35 3.302,2.651 11.481,2.09 22.949,4.244 34.424,6.366 2.259,0.418 2.701,0.89 2.702,3.122 0.003,11.904 0.003,23.808 0,35.712 -0.001,2.251 -0.44,2.733 -2.675,3.147 -11.295,2.092 -22.587,4.201 -33.883,6.285 -1.386,0.256 -2.256,0.997 -2.777,2.303 -3.548,8.904 -7.105,17.804 -10.708,26.686 -0.63,1.552 -0.463,2.827 0.487,4.201 6.28,9.079 12.513,18.19 18.755,27.294 1.742,2.542 1.699,2.963 -0.438,5.1 -8.094,8.097 -16.19,16.193 -24.286,24.289 -2.107,2.107 -2.605,2.123 -5.106,0.402 -8.909,-6.129 -17.842,-12.221 -26.729,-18.381 -1.455,-1.009 -2.717,-1.109 -4.268,-0.239 -3.605,2.022 -7.273,3.93 -10.923,5.869 -2.214,1.176 -2.745,0.983 -3.692,-1.307 -6.74,-16.285 -13.476,-32.571 -20.212,-48.857 -1.719,-4.155 -3.438,-8.311 -5.153,-12.467 -0.974,-2.362 -0.771,-2.88 1.349,-4.228 4.799,-3.051 9.443,-6.291 13.183,-10.67 5.788,-6.775 9.273,-14.55 9.886,-23.446 1.136,-16.489 -5.369,-29.355 -19.027,-38.523 -6.655,-4.467 -14.169,-6.433 -19.941,-6.468 z"
     style="fill:#66bc45;fill-rule:nonzero;stroke:#030405;stroke-width:9px"
     id="path1" /></svg>
