<?xml version="1.0" encoding="UTF-8" standalone="no"?>
<!-- Created with Inkscape (http://www.inkscape.org/) -->

<svg
   width="36.74551mm"
   height="42.832413mm"
   viewBox="0 0 36.74551 42.832413"
   version="1.1"
   id="svg1"
   inkscape:version="1.4 (e7c3feb1, 2024-10-09)"
   sodipodi:docname="sloth.svg"
   xmlns:inkscape="http://www.inkscape.org/namespaces/inkscape"
   xmlns:sodipodi="http://sodipodi.sourceforge.net/DTD/sodipodi-0.dtd"
   xmlns="http://www.w3.org/2000/svg"
   xmlns:svg="http://www.w3.org/2000/svg">
  <sodipodi:namedview
     id="namedview1"
     pagecolor="#ffffff"
     bordercolor="#999999"
     borderopacity="1"
     inkscape:showpageshadow="2"
     inkscape:pageopacity="0"
     inkscape:pagecheckerboard="0"
     inkscape:deskcolor="#d1d1d1"
     inkscape:document-units="mm"
     inkscape:zoom="0.89887065"
     inkscape:cx="-101.23815"
     inkscape:cy="10.568818"
     inkscape:window-width="1200"
     inkscape:window-height="1186"
     inkscape:window-x="2240"
     inkscape:window-y="25"
     inkscape:window-maximized="0"
     inkscape:current-layer="layer1" />
  <defs
     id="defs1" />
  <g
     inkscape:label="Layer 1"
     inkscape:groupmode="layer"
     id="layer1"
     transform="translate(-131.7625,-145.78542)">
    <g
       id="sloth"
       transform="matrix(0.26458333,0,0,0.26458333,168.16172,101.07484)"
       style="clip-rule:evenodd;fill-rule:evenodd">
      <path
         d="m -47.26944,237.09665 c -3.251,-1.821 -6.075,-3.489 -8.978,-5.005 -2.829,-1.478 -5.831,-2.642 -8.586,-4.239 -2.768,-1.604 -4.472,-3.918 -2.941,-7.361 1.52,-3.419 4.373,-4.083 7.673,-3.498 5.009,0.889 8.458,3.924 11.118,8.137 1.229,1.948 2.861,3.643 4.716,5.961 0.613,-1.62 0.974,-2.287 1.119,-2.999 1.707,-8.412 -2.071,-16.192 -10.493,-21.158 -6.536,-3.854 -13.2,-7.048 -20.959,-2.793 -0.946,0.519 -2.914,-0.228 -4.129,-0.896 -10.948,-6.016 -21.226,-4.467 -30.957,2.682 -4.606,3.384 -6.575,8.927 -5.251,13.645 4.87,-1.928 9.659,-4.13 14.651,-5.668 2.405,-0.741 5.476,-0.944 7.722,-0.06 1.795,0.706 3.681,3.307 3.943,5.278 0.377,2.837 -1.756,5.041 -4.749,5.628 -1.864,0.366 -3.843,0.108 -5.727,0.404 -5.319,0.835 -10.616,1.813 -16.788,2.884 8.465,15.832 20.62,23.177 37.043,24.107 12.954,0.734 24.193,-1.901 31.573,-15.049 z m 18.543,53.631 c 11.453,-9.28 30.667,-14.864 27.732,-3.327 -3.591,14.114 -11.598,25.168 -24.53,32.028 -19.797,10.502 -40.591,12.243 -61.898,5.298 -30.819,-10.046 -50.76,-39.255 -47.872,-69.684 0.888,-9.359 3.928,-17.953 8.686,-26.077 1.602,-2.735 2.151,-6.119 2.992,-9.257 0.714,-2.667 1.156,-5.406 1.8,-8.503 -0.893,0.647 -1.551,1.124 -2.723,1.974 -0.196,-8.578 4.904,-13.522 11.192,-18.522 -2.289,-0.022 -3.863,-0.038 -5.669,-0.055 4.053,-2.829 7.813,-5.416 11.497,-8.106 0.244,-0.179 -0.088,-1.145 -0.209,-2.278 3.269,0.191 6.291,0.367 8.697,0.507 1.301,-0.881 2.283,-1.547 3.423,-2.32 -0.091,-0.274 -0.362,-1.086 -0.802,-2.407 1.851,0.762 3.299,1.357 5.067,2.085 0.054,-1.274 0.097,-2.313 0.173,-4.118 5.368,4.905 8.718,2.417 12.04,-2.459 -0.006,1.686 -0.012,3.372 -0.021,5.638 1.521,-0.898 2.946,-1.571 4.176,-2.503 2.295,-1.739 4.342,-2.876 5.12,0.906 2.897,-0.434 5.399,-0.808 8.521,-1.275 -0.507,1.263 -0.782,1.948 -1.223,3.047 2.272,0.448 4.474,0.882 6.926,1.365 -0.364,1.161 -0.72,2.298 -1.132,3.613 1.852,0.891 3.756,1.618 5.469,2.66 8.965,5.454 12.981,13.863 14.031,23.962 0.53,5.094 1.013,10.194 1.398,15.3 0.124,1.643 0.048,3.348 -0.245,4.969 -2.152,11.906 -14.118,26.441 -25.785,31.203 -0.219,-0.924 -7.316,1.726 -10.088,3.768 -0.724,0.534 -1.218,1.379 -1.818,2.081 0.87,0.328 1.784,1.023 2.604,0.926 8.309,-0.978 16.114,-3.411 22.366,-9.243 9.304,-8.679 16.036,-19.278 21.905,-30.447 2.778,-5.287 10.044,-8.917 15.844,-7.638 5.253,1.158 7.452,7.283 3.333,11.921 -6.68,7.522 -8.467,16.669 -11.056,25.816 -2.189,7.732 -5.791,15.064 -8.768,22.574 -0.787,1.986 -1.572,3.972 -2.358,5.959 0.402,0.206 0.803,0.412 1.205,0.619 z"
         style="clip-rule:evenodd;fill:#8562aa;fill-rule:nonzero;stroke:#030405;stroke-width:4px;stroke-miterlimit:10"
         id="path1" />
      <path
         d="m -47.26944,237.09665 c -7.38,13.148 -18.619,15.783 -31.573,15.049 -16.423,-0.93 -28.578,-8.275 -37.043,-24.107 6.172,-1.071 11.469,-2.049 16.788,-2.884 1.884,-0.296 3.863,-0.038 5.727,-0.404 2.993,-0.587 5.126,-2.791 4.749,-5.628 -0.262,-1.971 -2.148,-4.572 -3.943,-5.278 -2.246,-0.884 -5.317,-0.681 -7.722,0.06 -4.992,1.538 -9.781,3.74 -14.651,5.668 -1.324,-4.718 0.645,-10.261 5.251,-13.645 9.731,-7.149 20.009,-8.698 30.957,-2.682 1.215,0.668 3.183,1.415 4.129,0.896 7.759,-4.255 14.423,-1.061 20.959,2.793 8.422,4.966 12.2,12.746 10.493,21.158 -0.145,0.712 -0.506,1.379 -1.119,2.999 -1.855,-2.318 -3.487,-4.013 -4.716,-5.961 -2.66,-4.213 -6.109,-7.248 -11.118,-8.137 -3.3,-0.585 -6.153,0.079 -7.673,3.498 -1.531,3.443 0.173,5.757 2.941,7.361 2.755,1.597 5.757,2.761 8.586,4.239 2.903,1.516 5.727,3.184 8.978,5.005"
         style="clip-rule:evenodd;fill:#653d98;fill-rule:nonzero;stroke-miterlimit:10"
         id="path2" />
      <path
         d="m -84.68844,225.49965 12.406,0.978 c 5.547,0.437 8.773,3.775 5.806,6.008 l -3.317,2.497 -3.318,2.497 c -2.967,2.234 -9.901,1.687 -12.482,-0.983 l -5.77,-5.972 c -2.581,-2.67 1.128,-5.462 6.675,-5.025 z"
         style="clip-rule:evenodd;fill:#241f20;fill-rule:nonzero;stroke-miterlimit:10"
         id="path3" />
      <path
         d="m -91.46744,220.50265 c -0.692,2.185 -3.207,3.337 -5.617,2.573 -2.41,-0.763 -3.803,-3.153 -3.111,-5.337 0.691,-2.185 3.206,-3.337 5.617,-2.574 2.41,0.764 3.803,3.153 3.111,5.338"
         style="clip-rule:evenodd;fill:#52b3e5;fill-rule:nonzero;stroke-miterlimit:10"
         id="path4" />
      <path
         d="m -91.46744,220.50265 c 0.691,-2.184 -0.703,-4.575 -3.112,-5.338 -2.409,-0.763 -4.926,0.39 -5.617,2.574 -0.692,2.183 0.703,4.575 3.111,5.338 2.409,0.762 4.926,-0.391 5.618,-2.574 z"
         style="clip-rule:evenodd;fill:none;fill-rule:evenodd;stroke:#030405;stroke-width:4px;stroke-miterlimit:10"
         id="path5" />
      <path
         d="m -57.05844,224.41665 c -0.692,2.185 -3.207,3.337 -5.617,2.573 -2.41,-0.763 -3.803,-3.153 -3.111,-5.337 0.691,-2.185 3.206,-3.337 5.617,-2.574 2.41,0.764 3.803,3.153 3.111,5.338"
         style="clip-rule:evenodd;fill:#52b3e5;fill-rule:nonzero;stroke-miterlimit:10"
         id="path6" />
      <path
         d="m -57.05844,224.41665 c 0.692,-2.183 -0.703,-4.575 -3.111,-5.338 -2.409,-0.763 -4.926,0.39 -5.618,2.574 -0.691,2.183 0.703,4.575 3.112,5.338 2.409,0.763 4.926,-0.391 5.617,-2.574 z"
         style="clip-rule:evenodd;fill:none;fill-rule:evenodd;stroke:#030405;stroke-width:4px;stroke-miterlimit:10"
         id="path7" />
    </g>
  </g>
</svg>
